<?xml version="1.0" encoding="UTF-8"?>
<svg version="1.1" xmlns="http://www.w3.org/2000/svg" width="1024" height="1024">
<path d="M0 0 C14.13247411 13.32090629 16.58735154 38.94637875 21.43654251 57.02570343 C22.00532356 59.14483422 22.57543093 61.26360389 23.14596558 63.38226318 C27.4533171 79.37885745 31.72526996 95.38297472 35.8125 111.4375 C38.48888488 121.93101751 41.18660783 132.4173121 44 142.875 C44.30558838 144.0417627 44.61117676 145.20852539 44.92602539 146.41064453 C47.91818191 157.3961913 51.71598125 167.99294818 61.91815186 174.11315918 C68.10732606 177.2757758 74.13142455 179.2260258 80.890625 180.78125 C81.93204651 181.03104614 82.97346802 181.28084229 84.04644775 181.53820801 C87.27803883 182.30940318 90.51339829 183.06264317 93.75 183.8125 C95.69994391 184.27051791 97.64981599 184.72884171 99.59960938 185.1875 C104.51647076 186.33807538 109.43758117 187.4693522 114.36032104 188.59448242 C119.93560009 189.8695008 125.50858389 191.15450327 131.08203125 192.4375 C133.47086469 192.98698438 135.85969934 193.53646345 138.24853516 194.0859375 C149.56776233 196.69066249 160.88628914 199.29831906 172.20059395 201.92435455 C175.49826367 202.68964885 178.79629061 203.45330621 182.09533691 204.21264648 C185.79245574 205.06445396 189.48815237 205.92219851 193.18359375 206.78125 C194.26388351 207.02875 195.34417328 207.27625 196.4571991 207.53125 C212.48814523 211.27729049 226.56127851 214.93201994 235.84765625 229.5390625 C239.27134579 236.76862087 239.12388613 247.28572133 236.8359375 254.82421875 C235.64548929 257.33184031 234.33985615 259.53946959 232.75 261.8125 C232.31558594 262.45574219 231.88117187 263.09898437 231.43359375 263.76171875 C223.55509536 274.10926222 211.29732356 276.63899109 199.3125 279.4375 C197.55615368 279.86079908 195.80014002 280.28548042 194.04443359 280.71142578 C189.28260095 281.86117908 184.51567059 282.98813869 179.74676514 284.1081543 C176.73035441 284.81711741 173.71490433 285.53003567 170.69970703 286.24414062 C160.12855492 288.74688109 149.55365978 291.23345321 138.9765625 293.7109375 C126.49587393 296.6354975 114.01613293 299.56377517 101.54534912 302.53033447 C99.37457721 303.04557668 97.20324236 303.55845381 95.03131104 304.06878662 C70.57053666 308.93165329 70.57053666 308.93165329 52.14013672 324.49755859 C46.0593517 334.62365686 43.96035101 347.62622317 40.9375 358.9375 C40.37165174 361.04124093 39.80556532 363.14491781 39.23925781 365.24853516 C34.77026999 381.88002303 30.38138313 398.53276097 26 415.1875 C25.52259872 417.00077286 25.52259872 417.00077286 25.03555298 418.85067749 C20.78994774 434.97018348 20.78994774 434.97018348 16.62097168 451.10961914 C15.81005908 454.27984347 14.99180416 457.44814808 14.17272949 460.61627197 C13.64877772 462.65737182 13.13704922 464.70125097 12.62597656 466.74560547 C9.48017385 478.90190915 5.33987877 489.26742732 -5.6875 496.125 C-15.81811681 500.92371323 -24.55943705 500.62188709 -35.125 497.13671875 C-42.6528335 493.9467993 -47.827013 488.13633857 -51.25 480.8125 C-52.07178217 478.44521904 -52.84636698 476.08981288 -53.578125 473.6953125 C-53.79379623 472.99637375 -54.00946747 472.297435 -54.23167419 471.57731628 C-56.80060364 463.15007039 -59.05753304 454.64040619 -61.3125 446.125 C-61.78553874 444.34877931 -62.25889468 442.57264307 -62.73254395 440.79658508 C-63.72864629 437.05948626 -64.72281508 433.32188059 -65.71557617 429.58389282 C-67.26076473 423.76810678 -68.8143134 417.95457282 -70.36914062 412.14135742 C-78.72131375 380.90040741 -78.72131375 380.90040741 -82.47290039 366.45437622 C-83.63206423 361.99445317 -84.80371716 357.5378715 -85.97753906 353.08178711 C-86.48527238 351.13831108 -86.98613517 349.19302475 -87.47949219 347.24584961 C-90.80245731 334.13126029 -94.37236547 322.93461218 -105.55078125 314.34765625 C-112.55677642 310.36305987 -120.13961588 308.12701307 -127.95703125 306.359375 C-128.8876236 306.14211258 -129.81821594 305.92485016 -130.77700806 305.70100403 C-133.87049578 304.98071912 -136.96644833 304.27167557 -140.0625 303.5625 C-142.27173636 303.05013285 -144.48079755 302.53700992 -146.68969727 302.02319336 C-152.18229879 300.74740501 -157.67655737 299.47894725 -163.17154408 298.21347523 C-172.74568963 296.00806434 -182.31682628 293.78963087 -191.88804626 291.57156372 C-193.43081653 291.21404978 -194.97358692 290.85653635 -196.51635742 290.49902344 C-197.27856566 290.32237341 -198.04077391 290.14572338 -198.82607937 289.96372032 C-203.33723061 288.91850991 -207.84898015 287.87593195 -212.36123657 286.83550358 C-238.11025152 280.89769078 -238.11025152 280.89769078 -249.890625 278.015625 C-251.05524513 277.73671165 -251.05524513 277.73671165 -252.24339294 277.4521637 C-263.36376317 274.68678146 -271.43859572 269.55194541 -277.52734375 259.7578125 C-281.59806737 251.84815024 -282.49673494 242.6275991 -279.875 234.125 C-275.77735955 224.56383894 -269.17712179 218.71292336 -259.94433594 214.28295898 C-252.49589174 211.3182498 -244.68114269 209.74234751 -236.875 208 C-235.0341302 207.57649657 -233.19364001 207.15133998 -231.35351562 206.72460938 C-227.56060602 205.84709368 -223.76606161 204.97732172 -219.96972656 204.11474609 C-211.72856735 202.24130856 -203.496241 200.33068607 -195.26824951 198.40029907 C-192.78274135 197.82014235 -190.29511619 197.24983717 -187.80712891 196.68041992 C-186.29841411 196.32899298 -184.78978289 195.97720696 -183.28125 195.625 C-182.59368622 195.47021683 -181.90612244 195.31543365 -181.19772339 195.15596008 C-177.33229296 194.24815694 -177.33229296 194.24815694 -174.25 191.8125 C-172.64295146 191.82792531 -171.03581817 191.84844719 -169.42929077 191.8921814 C-164.87466261 191.72565055 -160.46372163 190.43112877 -156.05078125 189.36328125 C-154.97934372 189.10878708 -153.90790619 188.85429291 -152.80400085 188.59208679 C-150.54131346 188.05210568 -148.27959341 187.50805696 -146.01879883 186.96020508 C-142.59433199 186.13269211 -139.16573534 185.32433798 -135.73632812 184.51757812 C-133.52836731 183.98813935 -131.32067588 183.45757569 -129.11328125 182.92578125 C-128.10348709 182.68910233 -127.09369293 182.4524234 -126.05329895 182.20857239 C-114.09843842 179.27504902 -102.98193392 175.93116132 -96.125 165.1875 C-90.72914713 156.25538198 -88.28090888 145.74507443 -85.66796875 135.7421875 C-85.33676529 134.49088043 -85.00556183 133.23957336 -84.6643219 131.9503479 C-83.95276961 129.26170872 -83.2444294 126.57225251 -82.53869629 123.88208008 C-81.42396275 119.63288241 -80.30168362 115.38569821 -79.17871094 111.13867188 C-75.77219635 98.2467741 -72.38827501 85.34895768 -69.0124054 72.44900513 C-68.32475174 69.82132875 -67.63660362 67.19378281 -66.94792175 64.56637573 C-65.34724265 58.45943621 -63.74975182 52.35172419 -62.16088867 46.24169922 C-51.37162381 4.89358254 -51.37162381 4.89358254 -39.25 -3.1875 C-25.99350857 -10.41831351 -11.85251078 -9.5484713 0 0 Z M-22.25 26.8125 C-27.8391379 46.92424731 -33.3582633 67.0511647 -38.625 87.25 C-39.07351716 88.9671356 -39.52208533 90.68425788 -39.97070312 92.40136719 C-41.95274806 99.99203278 -43.93146436 107.58354628 -45.90185547 115.17724609 C-47.33282556 120.68945555 -48.77286518 126.1992389 -50.21783447 131.70779419 C-50.77202674 133.82683176 -51.32319633 135.94666264 -51.87103271 138.06735229 C-58.25534971 162.77081988 -65.2667498 186.84924057 -87.375 202.0625 C-87.92937744 202.45074951 -88.48375488 202.83899902 -89.05493164 203.23901367 C-103.06788732 212.38008848 -119.7764712 215.35591128 -135.8125 219 C-138.25534945 219.56460481 -140.69789125 220.13054224 -143.14013672 220.69775391 C-148.10658851 221.85055789 -153.07413327 222.99846067 -158.04248047 224.14306641 C-167.70639292 226.37493659 -177.35240043 228.68055526 -186.99649048 230.99633789 C-189.8452828 231.68036457 -192.69443644 232.3628659 -195.54370117 233.04492188 C-210.45056433 236.61435051 -225.35256835 240.2039106 -240.25 243.8125 C-236.38617889 246.09621995 -232.15206911 246.90124348 -227.82421875 247.87890625 C-226.56101555 248.17069008 -226.56101555 248.17069008 -225.27229309 248.46836853 C-222.4951018 249.10868198 -219.71632423 249.74181423 -216.9375 250.375 C-214.98556511 250.82373197 -213.03374361 251.27295741 -211.08203125 251.72265625 C-207.07661769 252.64476496 -203.07058253 253.56409461 -199.06396484 254.48095703 C-193.7874151 255.68863759 -188.51244325 256.90303228 -183.23828125 258.12109375 C-182.44762268 258.3035968 -181.65696411 258.48609985 -180.84234619 258.6741333 C-176.89865148 259.58462158 -172.95526137 260.49641048 -169.01220703 261.40966797 C-161.25774862 263.20421408 -153.5007709 264.98525459 -145.7348938 266.72982788 C-141.8649584 267.60086988 -137.99706953 268.48079854 -134.12939453 269.36181641 C-132.28737595 269.77913627 -130.4444667 270.19254898 -128.60058594 270.6015625 C-110.65509333 274.58502368 -92.8355135 279.07598061 -79.51171875 292.58984375 C-77.54076232 295.04614024 -77.54076232 295.04614024 -75.25 294.8125 C-74.98574219 295.38355469 -74.72148437 295.95460938 -74.44921875 296.54296875 C-73.18046415 298.94409717 -71.69789015 300.95820161 -70.0625 303.125 C-61.95838742 314.69932107 -57.93898151 327.21195689 -54.5352478 340.75100708 C-53.50869594 344.83307108 -52.44890201 348.90634496 -51.39222717 352.98069763 C-50.77823093 355.34954584 -50.1659481 357.71883867 -49.55516052 360.08851624 C-46.45862877 372.09195384 -43.26769794 384.06996699 -40.0703125 396.046875 C-39.79905737 397.06295523 -39.52780224 398.07903545 -39.24832726 399.12590599 C-37.86724654 404.29810254 -36.48533539 409.47007675 -35.10299683 414.64193726 C-32.66211658 423.77505888 -30.22667796 432.90963196 -27.79069138 442.04405975 C-26.60969039 446.47223957 -25.42827375 450.90030846 -24.24682617 455.32836914 C-23.94079389 456.47539669 -23.94079389 456.47539669 -23.62857914 457.6455965 C-23.1690586 459.36789923 -22.70953032 461.09019989 -22.25 462.8125 C-20.42035687 460.0680353 -19.92087072 458.88026806 -19.25 455.8125 C-18.7061912 453.82562215 -18.15735397 451.84011842 -17.60546875 449.85546875 C-13.32293602 434.36218099 -9.19860928 418.83657627 -5.24655151 403.25552368 C-0.95309436 386.33003917 3.36097605 369.40961268 7.78723145 352.51831055 C8.33751024 350.41261017 8.88441129 348.30602363 9.4276123 346.19848633 C16.09460102 320.35649326 24.14244123 298.3606536 48.05078125 283.734375 C58.050757 278.31358538 68.55383515 275.36778062 79.5625 272.8125 C81.15100828 272.43570186 82.73929843 272.05798316 84.32739258 271.67944336 C87.84739683 270.8425851 91.36889626 270.0124253 94.89160156 269.18701172 C101.24018358 267.69922745 107.58495867 266.19552376 113.9296875 264.69140625 C123.29036436 262.4736249 132.65249274 260.26207792 142.015625 258.0546875 C154.74362505 255.05338513 167.46672362 252.03175969 180.1875 249 C181.0979306 248.78304474 182.00836121 248.56608948 182.94638062 248.34255981 C187.88107578 247.16652404 192.81561893 245.98985293 197.75 244.8125 C194.26529183 242.85978358 190.73210658 241.89964912 186.87695312 240.89282227 C185.8835429 240.63313203 185.8835429 240.63313203 184.87006378 240.36819553 C178.18073982 238.63517424 171.4557261 237.06356127 164.71875 235.52734375 C163.41028794 235.22692545 162.10188402 234.92625389 160.79353333 234.62535095 C158.03548706 233.99144539 155.27711021 233.35900785 152.51846313 232.72772217 C148.19135421 231.73719704 143.86546659 230.74140929 139.53979492 229.74462891 C127.32008041 226.92946728 115.09920256 224.11957671 102.87442017 221.32649231 C98.59055919 220.34596188 94.30825444 219.35876957 90.02636719 218.36965942 C88.07900188 217.92145662 86.13093849 217.47627407 84.18212891 217.03439331 C59.56155054 211.44985833 39.74454104 204.15860969 24.3046875 183.15625 C15.89744117 169.73079064 12.22408375 154.55631577 8.375 139.375 C7.7846341 137.08908787 7.19288218 134.80353332 6.59985352 132.51831055 C5.32503662 127.59910398 4.05732091 122.67814168 2.79443359 117.75585938 C-0.30459515 105.68502012 -3.46846567 93.63102263 -6.62506866 81.57514095 C-7.73426118 77.33803429 -8.84074168 73.10023295 -9.94451904 68.86171246 C-13.6027912 54.8140579 -17.2881301 40.77818044 -21.25 26.8125 C-21.58 26.8125 -21.91 26.8125 -22.25 26.8125 Z " fill="#A6A4FE" transform="translate(550.25,248.1875)"/>
<path d="M0 0 C7.29685927 8.1553133 6.78075004 17.06230133 6.875 27.375 C6.90319683 28.92841819 6.93312938 30.48180589 6.96484375 32.03515625 C7.03827072 35.81504909 7.08811166 39.59458122 7.125 43.375 C8.60709961 43.39687378 8.60709961 43.39687378 10.11914062 43.41918945 C13.81708313 43.47756335 17.51444136 43.55479024 21.21191406 43.63745117 C22.80621798 43.67051798 24.40063383 43.69860559 25.99511719 43.72143555 C28.29930927 43.75532072 30.60249225 43.80764737 32.90625 43.86328125 C33.95987732 43.87286613 33.95987732 43.87286613 35.03479004 43.88264465 C40.55834471 44.04340617 46.37691588 44.96490399 50.65881348 48.72016907 C55.08134358 53.76474955 56.64121535 58.42255948 56.51953125 65.015625 C55.84791394 69.03202954 53.83372048 72.3625745 51.125 75.375 C50.465 75.375 49.805 75.375 49.125 75.375 C49.125 76.035 49.125 76.695 49.125 77.375 C44.49726308 79.71928742 40.38190969 79.63513564 35.32421875 79.5703125 C34.0696563 79.56606766 34.0696563 79.56606766 32.78974915 79.56173706 C30.13051774 79.5505832 27.47162882 79.52548763 24.8125 79.5 C23.00456217 79.48996399 21.19661904 79.48083923 19.38867188 79.47265625 C14.96731688 79.45065959 10.54621642 79.41616294 6.125 79.375 C6.14594727 80.42365234 6.16689453 81.47230469 6.18847656 82.55273438 C6.26132492 86.47381735 6.30696111 90.39484149 6.34472656 94.31640625 C6.3647406 96.00791511 6.39196073 97.69935567 6.42675781 99.390625 C6.47573065 101.83350554 6.49807033 104.27546511 6.515625 106.71875 C6.53627014 107.46491577 6.55691528 108.21108154 6.57818604 108.9798584 C6.58051595 114.53343222 5.19334561 118.7270739 2.125 123.375 C-3.02145557 128.27040896 -7.29888227 128.67623344 -14.15234375 128.5859375 C-19.31267211 128.18614162 -22.36523393 126.15843049 -25.6875 122.375 C-29.15725753 117.61647539 -29.0095108 113.65679853 -28.97265625 107.98828125 C-28.9712413 107.17127243 -28.96982635 106.35426361 -28.96836853 105.51249695 C-28.96277294 102.90412732 -28.95022129 100.29584366 -28.9375 97.6875 C-28.93248443 95.91862103 -28.92792162 94.14974072 -28.92382812 92.38085938 C-28.91280496 88.04553981 -28.89554338 83.71028448 -28.875 79.375 C-29.99471191 79.39071045 -31.11442383 79.4064209 -32.26806641 79.42260742 C-36.43889111 79.47707894 -40.60968462 79.51141252 -44.78076172 79.53979492 C-46.58289892 79.5548424 -48.38499973 79.5752853 -50.18701172 79.60131836 C-52.78362021 79.63788021 -55.37974275 79.65476681 -57.9765625 79.66796875 C-59.17691635 79.69119453 -59.17691635 79.69119453 -60.40151978 79.71488953 C-65.31259891 79.71635311 -68.61281763 79.07576126 -72.875 76.375 C-77.04528481 72.10993599 -79.75180424 68.3317579 -79.94140625 62.2421875 C-79.61846956 56.46847101 -77.90461637 52.52877822 -73.875 48.375 C-68.34601299 44.32939975 -63.28109436 44.23243744 -56.609375 44.27734375 C-55.81597717 44.2787587 -55.02257935 44.28017365 -54.20513916 44.28163147 C-51.67838728 44.28721585 -49.15172496 44.29976546 -46.625 44.3125 C-44.90885545 44.31751702 -43.19270951 44.32207957 -41.4765625 44.32617188 C-37.27600731 44.33718016 -33.07551883 44.35443404 -28.875 44.375 C-28.89071045 43.34616699 -28.9064209 42.31733398 -28.92260742 41.25732422 C-28.97711334 37.42195537 -29.01142477 33.58662043 -29.03979492 29.75097656 C-29.05483465 28.09434237 -29.07527177 26.43774769 -29.10131836 24.78125 C-29.13791515 22.3931297 -29.15477439 20.00553812 -29.16796875 17.6171875 C-29.18345261 16.88257294 -29.19893646 16.14795837 -29.21488953 15.39108276 C-29.21643383 10.6184943 -28.39524135 7.42420513 -25.875 3.375 C-18.1768104 -4.3231896 -9.39352694 -5.30938479 0 0 Z " fill="#A6A3FE" transform="translate(736.875,264.625)"/>
<path d="M0 0 C5.10589157 2.70152993 8.48519656 6.49665809 12 11 C13.16895715 12.06243347 14.359219 13.10160343 15.5625 14.125 C19.08529694 17.14548443 22.44997056 20.30172372 25.75 23.5625 C26.65234375 24.45066406 27.5546875 25.33882812 28.484375 26.25390625 C32.94899891 31.12755627 36 35.23105399 36 42 C33.29044449 50.12866653 27.07738217 55.24436159 21 61 C20.2678125 61.76828125 19.535625 62.5365625 18.78125 63.328125 C17 65 17 65 15 65 C14.773125 65.556875 14.54625 66.11375 14.3125 66.6875 C10.97201735 72.57311229 5.02653799 77.06022537 -1 80 C-6.71204434 81.16687562 -11.02803629 80.05966998 -16 77 C-16 76.34 -16 75.68 -16 75 C-16.86625 74.62875 -16.86625 74.62875 -17.75 74.25 C-20.32939979 72.81700012 -22.06121592 71.21575324 -24 69 C-24 68.34 -24 67.68 -24 67 C-24.59095459 66.73356689 -25.18190918 66.46713379 -25.79077148 66.19262695 C-28.04521984 64.97558858 -29.53868082 63.71947679 -31.34765625 61.91796875 C-31.95287109 61.31533203 -32.55808594 60.71269531 -33.18164062 60.09179688 C-33.80232422 59.46337891 -34.42300781 58.83496094 -35.0625 58.1875 C-35.68705078 57.57068359 -36.31160156 56.95386719 -36.95507812 56.31835938 C-41.83330152 51.41931112 -45.56916117 47.1806471 -46 40 C-44.71791888 28.88863028 -32.29046019 20.08574686 -24.8125 12.5625 C-23.94947266 11.67884766 -23.08644531 10.79519531 -22.19726562 9.88476562 C-21.35486328 9.03720703 -20.51246094 8.18964844 -19.64453125 7.31640625 C-18.89534424 6.55787354 -18.14615723 5.79934082 -17.37426758 5.01782227 C-12.12093252 0.5531627 -6.77456048 -1.42139678 0 0 Z " fill="#B6A0FE" transform="translate(344,588)"/>
<path d="M0 0 C0 0.33 0 0.66 0 1 C-1.051875 1.00386719 -1.051875 1.00386719 -2.125 1.0078125 C-8.43080625 1.26484265 -12.43216023 2.27303835 -17.44140625 6.13671875 C-21.24875173 10.68835733 -21.30130322 16.2706029 -21.34375 21.953125 C-21.3583728 22.6945575 -21.37299561 23.43598999 -21.38806152 24.19989014 C-21.45000992 27.35053912 -21.49010958 30.50137094 -21.53173828 33.65234375 C-21.56538467 35.96114926 -21.61048288 38.26953319 -21.65625 40.578125 C-21.6615271 41.2926886 -21.6668042 42.0072522 -21.67224121 42.74346924 C-21.77430776 47.77430776 -21.77430776 47.77430776 -24 50 C-26.87213947 50.11428863 -29.64848099 50.11003409 -32.515625 50.01953125 C-34.25909955 49.98935326 -36.00259006 49.96008537 -37.74609375 49.93164062 C-40.49606898 49.8759741 -43.24524788 49.81263823 -45.99462891 49.73266602 C-48.647543 49.65983624 -51.29949903 49.61882185 -53.953125 49.58203125 C-55.17687836 49.53391045 -55.17687836 49.53391045 -56.425354 49.4848175 C-60.566389 49.44825487 -63.17602827 49.70842966 -66.46044922 52.35888672 C-68.94184742 54.93952177 -70.40498148 57.06981208 -71.875 60.3125 C-72.28492188 61.19550781 -72.69484375 62.07851563 -73.1171875 62.98828125 C-73.40851562 63.65214844 -73.69984375 64.31601562 -74 65 C-75.17739437 61.46781689 -74.55032055 60.06690063 -73.0078125 56.7734375 C-70.02657672 51.52738695 -65.65564229 48.72859195 -60 47 C-57.13509397 46.63075935 -54.32608363 46.64758187 -51.44140625 46.70703125 C-50.25767677 46.71339851 -50.25767677 46.71339851 -49.05003357 46.71989441 C-46.55382739 46.73655548 -44.05845808 46.77418221 -41.5625 46.8125 C-39.86003778 46.82756317 -38.15756279 46.84124871 -36.45507812 46.85351562 C-32.3030678 46.8864175 -28.1516753 46.93811049 -24 47 C-24.01571045 45.97116699 -24.0314209 44.94233398 -24.04760742 43.88232422 C-24.10211334 40.04695537 -24.13642477 36.21162043 -24.16479492 32.37597656 C-24.17983465 30.71934237 -24.20027177 29.06274769 -24.22631836 27.40625 C-24.26291515 25.0181297 -24.27977439 22.63053812 -24.29296875 20.2421875 C-24.30845261 19.50757294 -24.32393646 18.77295837 -24.33988953 18.01608276 C-24.34143383 13.2434943 -23.52024135 10.04920513 -21 6 C-14.48571892 -0.51428108 -8.71201406 -1.52842352 0 0 Z " fill="#B8A0FA" transform="translate(732,262)"/>
<path d="M0 0 C3.17860878 2.9375167 5.5055527 5.89750669 7.6875 9.625 C7.3575 10.285 7.0275 10.945 6.6875 11.625 C4.1875 9.3125 4.1875 9.3125 1.6875 6.625 C1.6875 5.635 1.6875 4.645 1.6875 3.625 C1.11 3.33625 0.5325 3.0475 -0.0625 2.75 C-3.1875 1.1875 -3.1875 1.1875 -6.3125 -0.375 C-6.3125 -1.035 -6.3125 -1.695 -6.3125 -2.375 C-15.28635876 -5.3052396 -25.98695717 -6.39760235 -34.75 -2.375 C-45.40141793 3.93432576 -49.92615409 11.98998132 -52.90917969 23.62109375 C-53.41598743 25.66331348 -53.90296368 27.7091106 -54.3828125 29.7578125 C-55.26207818 33.41526216 -56.25522994 37.01554934 -57.3125 40.625 C-57.52132813 41.35589844 -57.73015625 42.08679688 -57.9453125 42.83984375 C-58.40104167 44.43489583 -58.85677083 46.02994792 -59.3125 47.625 C-59.9725 47.625 -60.6325 47.625 -61.3125 47.625 C-59.70402744 31.65381361 -55.99930394 11.60350082 -44 0.125 C-30.59289208 -10.73159749 -13.36886896 -11.14894607 0 0 Z " fill="#D39DF6" transform="translate(550.3125,248.375)"/>
<path d="M0 0 C-0.33 0.66 -0.66 1.32 -1 2 C-3.86645045 2.92794183 -6.85024561 3.3431937 -9.8125 3.875 C-12.98860175 4.49540471 -15.44171575 5.19274869 -18.4375 6.5 C-24.76672512 9.16493689 -31.25051335 10.70564645 -38 9 C-32.91842014 6.14907219 -27.2034053 5.19961779 -21.58276367 3.85839844 C-19.57076575 3.37697779 -17.56174758 2.88433428 -15.55273438 2.390625 C-13.64137695 1.93042969 -13.64137695 1.93042969 -11.69140625 1.4609375 C-9.94645874 1.04013916 -9.94645874 1.04013916 -8.16625977 0.61083984 C-5.33847888 0.06529988 -2.86679138 -0.12573941 0 0 Z M-45 8 C-41.375 8.375 -41.375 8.375 -38 9 C-39 11 -39 11 -41.86328125 11.96484375 C-46.94022169 13.29078454 -52.06706803 14.41897079 -57.1875 15.5625 C-59.13940354 16.0009433 -61.09122959 16.43973177 -63.04296875 16.87890625 C-63.89914795 17.0704126 -64.75532715 17.26191895 -65.63745117 17.45922852 C-67.15282418 17.80608717 -68.66495591 18.1676215 -70.17236328 18.54760742 C-72.33034948 19.08177098 -74.49127566 19.40522381 -76.6875 19.75 C-82.61090892 20.78779402 -88.2687439 22.48609198 -93.98510742 24.32324219 C-98.173144 25.62807231 -101.58003948 26.03871498 -106 26 C-106.99 26.66 -107.98 27.32 -109 28 C-111.6875 28.125 -111.6875 28.125 -114 28 C-114.33 27.34 -114.66 26.68 -115 26 C-114.15253204 25.803992 -113.30506409 25.60798401 -112.43191528 25.40603638 C-104.45469204 23.55965805 -96.47911737 21.7063526 -88.50532722 19.84520149 C-84.40563733 18.88855789 -80.30535513 17.93462683 -76.20361328 16.98681641 C-72.24695887 16.07242815 -68.29200101 15.1510177 -64.33813095 14.2246666 C-62.82761059 13.87208099 -61.31649127 13.52205147 -59.80478287 13.17459488 C-57.69130303 12.68836974 -55.58011468 12.19318807 -53.46923828 11.69580078 C-52.26566681 11.41600372 -51.06209534 11.13620667 -49.822052 10.84793091 C-46.89580471 10.21162027 -46.89580471 10.21162027 -45 8 Z " fill="#D09EF9" transform="translate(421,432)"/>
<path d="M0 0 C-1.0725 0.391875 -2.145 0.78375 -3.25 1.1875 C-3.97832031 1.4659375 -4.70664062 1.744375 -5.45703125 2.03125 C-7.25944647 2.71788437 -9.07036748 3.38237756 -10.88671875 4.03125 C-19.61054487 7.33759127 -26.9575282 11.7333615 -31.5625 20.125 C-33.0370832 23.50591372 -33.25814019 26.2999906 -33 30 C-33.495 31.485 -33.495 31.485 -34 33 C-33.90461866 35.15927946 -33.90461866 35.15927946 -33.5625 37.4375 C-33.16942716 40.37808292 -33 43.0041851 -33 46 C-36.69703137 42.30296863 -36.81554329 36.66011036 -37.375 31.625 C-36.31427911 21.37136477 -31.83720891 13.64940013 -24 7 C-17.20492296 2.68722443 -8.18972892 -2.46051066 0 0 Z " fill="#D39EF7" transform="translate(306,460)"/>
<path d="M0 0 C0.66 0.33 1.32 0.66 2 1 C1.54843826 3.73044334 1.08901691 6.45916982 0.625 9.1875 C0.49867188 9.95642578 0.37234375 10.72535156 0.2421875 11.51757812 C-0.4583913 15.59844963 -1.3486745 19.18047068 -3 23 C-3.36884334 24.44975923 -3.70356806 25.90872058 -4 27.375 C-4.57771486 30.1146322 -5.21631815 32.74359364 -6 35.4375 C-6.80048637 38.28923268 -7.4016955 41.03264254 -7.9375 43.9375 C-8.8298339 48.56077329 -10.22635735 52.63979515 -12 57 C-12.495 58.4540625 -12.495 58.4540625 -13 59.9375 C-13.495 60.9584375 -13.495 60.9584375 -14 62 C-15.485 62.495 -15.485 62.495 -17 63 C-16.82236618 62.35036789 -16.64473236 61.70073578 -16.4617157 61.03141785 C-14.50722831 53.87532816 -12.57183732 46.71423423 -10.64453125 39.55078125 C-10.33803146 38.41215134 -10.03153168 37.27352142 -9.71574402 36.10038757 C-8.7478259 32.50447081 -7.7801587 28.90848658 -6.8125 25.3125 C-6.15170937 22.85741739 -5.49090224 20.40233922 -4.83007812 17.94726562 C-3.21986135 11.96489507 -1.60984993 5.98246928 0 0 Z " fill="#CD9FFA" transform="translate(475,345)"/>
<path d="M0 0 C0.66 0.33 1.32 0.66 2 1 C0.19533983 11.01897544 -2.50769835 20.79509253 -5.125 30.625 C-5.59793198 32.41008322 -6.07059059 34.19523889 -6.54296875 35.98046875 C-7.69216003 40.32115484 -8.84505461 44.66084155 -10 49 C-10.66 49 -11.32 49 -12 49 C-11.37988999 42.87911314 -10.12687554 37.17562605 -8.49609375 31.25 C-8.13198143 29.90192261 -8.13198143 29.90192261 -7.76051331 28.52661133 C-6.99122728 25.68300905 -6.21449284 22.84150497 -5.4375 20 C-4.91161409 18.0613322 -4.38621851 16.12253132 -3.86132812 14.18359375 C-2.57988366 9.4541714 -1.29175949 4.72661491 0 0 Z " fill="#D09EF9" transform="translate(488,296)"/>
<path d="M0 0 C0.66 0 1.32 0 2 0 C0.62978168 8.73288812 -1.56164912 17.13494495 -4 25.625 C-4.35965708 26.91528599 -4.7190337 28.20565019 -5.078125 29.49609375 C-5.59632813 31.31173828 -5.59632813 31.31173828 -6.125 33.1640625 C-6.43695312 34.26186035 -6.74890625 35.3596582 -7.0703125 36.49072266 C-8 39 -8 39 -10 40 C-10.20518606 35.34439913 -9.51308264 31.58332663 -8.1875 27.125 C-7.82140625 25.89265625 -7.4553125 24.6603125 -7.078125 23.390625 C-6.07298735 20.22953992 -4.95033279 17.16553528 -3.7265625 14.0859375 C-2.12863133 9.49832865 -1.11033737 4.72483989 0 0 Z " fill="#CE9EFA" transform="translate(525,279)"/>
<path d="M0 0 C0.66 0.33 1.32 0.66 2 1 C0.13990982 7.61365397 -5.36456034 13.26623134 -11 17 C-11.66 17 -12.32 17 -13 17 C-13.33 17.99 -13.66 18.98 -14 20 C-16.765625 21.203125 -16.765625 21.203125 -20.25 22.25 C-21.95929688 22.78367187 -21.95929688 22.78367187 -23.703125 23.328125 C-26.95161522 23.99013959 -28.85596692 23.92193451 -32 23 C-28.85805691 21.29842512 -25.73162275 20.26903266 -22.3125 19.25 C-12.20709355 15.88973695 -6.21858176 11.31889601 -1 2 C-0.67 1.34 -0.34 0.68 0 0 Z M-36 23 C-34.68 23.33 -33.36 23.66 -32 24 C-33.32 24 -34.64 24 -36 24 C-36 23.67 -36 23.34 -36 23 Z " fill="#CDA0FA" transform="translate(457,408)"/>
<path d="M0 0 C0.66 0.33 1.32 0.66 2 1 C-3.34647048 7.61704346 -8.77102062 12.92828299 -15.875 17.625 C-16.51703369 18.05022949 -17.15906738 18.47545898 -17.82055664 18.91357422 C-20.85159265 20.8504122 -23.49059961 22.25338009 -27 23 C-27 22.34 -27 21.68 -27 21 C-26.36191406 20.66226562 -25.72382813 20.32453125 -25.06640625 19.9765625 C-24.24011719 19.53054688 -23.41382813 19.08453125 -22.5625 18.625 C-21.73878906 18.18414062 -20.91507812 17.74328125 -20.06640625 17.2890625 C-17.86533422 16.16581441 -17.86533422 16.16581441 -17 14 C-15.89205078 13.33677734 -15.89205078 13.33677734 -14.76171875 12.66015625 C-11.76213564 10.85701223 -9.38801343 8.8026084 -6.8125 6.4375 C-5.95269531 5.65246094 -5.09289062 4.86742187 -4.20703125 4.05859375 C-2.7821211 2.72951827 -1.37782629 1.37782629 0 0 Z " fill="#C9A0FB" transform="translate(478,434)"/>
<path d="M0 0 C1.67364828 3.05997496 2.59969307 5.99537205 3.4375 9.375 C4.56148364 13.59272078 5.85011063 17.17797444 8 21 C9.06344115 22.95782242 10.12586037 24.91620012 11.1875 26.875 C12.12397477 28.58389556 13.06113338 30.29241735 14 32 C10.56830945 30.96358339 9.85743743 29.76330782 7.96484375 26.62109375 C7.27455951 25.23368416 6.59940635 23.83867012 5.9375 22.4375 C5.58824463 21.71457764 5.23898926 20.99165527 4.87915039 20.24682617 C-2.03044753 5.72217032 -2.03044753 5.72217032 0 0 Z " fill="#B7A4FC" transform="translate(564,402)"/>
<path d="M0 0 C3.69887035 3.69887035 4.31402382 9.43158674 5.6875 14.375 C6.02072266 15.52484375 6.35394531 16.6746875 6.69726562 17.859375 C7.00728516 18.96539062 7.31730469 20.07140625 7.63671875 21.2109375 C8.06537231 22.73146729 8.06537231 22.73146729 8.50268555 24.28271484 C8.99553191 26.97558671 8.90964641 28.45359724 8 31 C6.02897848 27.48031871 5.07692971 23.87615511 4 20 C3.64679687 18.74960937 3.29359375 17.49921875 2.9296875 16.2109375 C2.58164062 14.94507813 2.23359375 13.67921875 1.875 12.375 C1.52179687 11.10398437 1.16859375 9.83296875 0.8046875 8.5234375 C0.11592607 5.50759864 -0.17624932 3.06673811 0 0 Z " fill="#CB9FF9" transform="translate(558,261)"/>
<path d="M0 0 C4.05984695 4.05984695 4.50547842 10.1695632 5.53515625 15.6328125 C5.83392093 17.15425278 6.18071847 18.66745353 6.5859375 20.1640625 C7.08964991 22.39750431 6.69282609 23.84454106 6 26 C3.68665164 21.65592956 2.56000278 17.17516725 1.3125 12.4375 C1.07466797 11.57447266 0.83683594 10.71144531 0.59179688 9.82226562 C0.37201172 8.99275391 0.15222656 8.16324219 -0.07421875 7.30859375 C-0.27619873 6.55376709 -0.47817871 5.79894043 -0.6862793 5.02124023 C-1 3 -1 3 0 0 Z " fill="#CF9EFA" transform="translate(530,275)"/>
<path d="M0 0 C0.66 0 1.32 0 2 0 C-0.13397899 8.73089879 -2.28018444 17.42846005 -5 26 C-5.66 26 -6.32 26 -7 26 C-5.74465372 20.14171734 -4.3697749 14.3171599 -2.9375 8.5 C-2.7631543 7.78134766 -2.58880859 7.06269531 -2.40917969 6.32226562 C-1.11644156 1.11644156 -1.11644156 1.11644156 0 0 Z " fill="#8FADFB" transform="translate(596,580)"/>
<path d="M0 0 C0.99 0.33 1.98 0.66 3 1 C1.625 3 1.625 3 0 5 C-0.66 5 -1.32 5 -2 5 C-1.34 3.35 -0.68 1.7 0 0 Z M-3 5 C-2.34 5.33 -1.68 5.66 -1 6 C-2.63040815 12.01077136 -4.27147357 18.01663928 -6 24 C-6.66 23.67 -7.32 23.34 -8 23 C-7.42934122 16.58008874 -5.32655091 10.98410537 -3 5 Z " fill="#97ACFC" transform="translate(571,559)"/>
<path d="M0 0 C0.66 0 1.32 0 2 0 C1.43006147 7.26671628 -0.35490391 14.20260212 -3 21 C-3.66 21.33 -4.32 21.66 -5 22 C-4.47458553 14.2501365 -2.44408524 7.3549914 0 0 Z " fill="#C8A0FA" transform="translate(501,368)"/>
<path d="M0 0 C2 2 2 2 2.1875 4.5625 C2 7 2 7 1 8 C0.814375 9.8253125 0.814375 9.8253125 0.625 11.6875 C0.1929099 15.61881158 -1.01613641 18.54980245 -3 22 C-3.66 22 -4.32 22 -5 22 C-3.60695059 14.59225491 -1.88100377 7.29829463 0 0 Z " fill="#7FB3FB" transform="translate(536,682)"/>
<path d="M0 0 C1.15294668 3.45884004 0.79943888 4.47127724 -0.21484375 7.88671875 C-0.48876953 8.82451172 -0.76269531 9.76230469 -1.04492188 10.72851562 C-1.33947266 11.70498047 -1.63402344 12.68144531 -1.9375 13.6875 C-2.22818359 14.67556641 -2.51886719 15.66363281 -2.81835938 16.68164062 C-3.53793217 19.1234696 -4.26540993 21.56265482 -5 24 C-5.66 23.67 -6.32 23.34 -7 23 C-6.37987481 20.26964299 -5.75409113 17.54079236 -5.125 14.8125 C-4.95097656 14.04357422 -4.77695312 13.27464844 -4.59765625 12.48242188 C-2.21901187 2.21901187 -2.21901187 2.21901187 0 0 Z " fill="#88AEFA" transform="translate(587,616)"/>
<path d="M0 0 C0.66 0 1.32 0 2 0 C0.83760783 7.19315625 -0.74503612 14.06974434 -3 21 C-3.66 21 -4.32 21 -5 21 C-3.83760783 13.80684375 -2.25496388 6.93025566 0 0 Z " fill="#86B1FB" transform="translate(544,653)"/>
<path d="M0 0 C0.66 0 1.32 0 2 0 C1.3476221 6.78473021 0.16619751 13.52213664 -2 20 C-2.66 20.33 -3.32 20.66 -4 21 C-3.63419196 13.54508438 -2.79080349 6.95068039 0 0 Z " fill="#7EB0F9" transform="translate(570,676)"/>
<path d="M0 0 C0.66 0 1.32 0 2 0 C1.42351925 7.35012956 -0.71046164 14.01424576 -3 21 C-3.66 20.67 -4.32 20.34 -5 20 C-3.56390017 13.26137773 -1.85991713 6.63370443 0 0 Z " fill="#C89FFA" transform="translate(495,391)"/>
<path d="M0 0 C0.66 0 1.32 0 2 0 C2.67250524 2.58193977 3.33817901 5.16532071 4 7.75 C4.19078125 8.47960937 4.3815625 9.20921875 4.578125 9.9609375 C5.46515964 13.44571646 6 16.38123722 6 20 C5.34 20 4.68 20 4 20 C3.32550034 17.60612843 2.66023359 15.21030779 2 12.8125 C1.80921875 12.13896484 1.6184375 11.46542969 1.421875 10.77148438 C0.4174164 7.09444844 -0.23704741 3.8149818 0 0 Z " fill="#BDA2FB" transform="translate(555,372)"/>
<path d="M0 0 C0.99 0.33 1.98 0.66 3 1 C3.94429201 3.63627265 4.67011223 6.10309327 5.3125 8.8125 C5.60350586 9.90014648 5.60350586 9.90014648 5.90039062 11.00976562 C6.92576327 15.17605669 7.16831398 17.31800561 5 21 C4.16267257 17.87605609 3.33082018 14.75068026 2.5 11.625 C2.26152344 10.73554687 2.02304687 9.84609375 1.77734375 8.9296875 C1.55175781 8.07890625 1.32617188 7.228125 1.09375 6.3515625 C0.88427734 5.56604004 0.67480469 4.78051758 0.45898438 3.97119141 C0 2 0 2 0 0 Z " fill="#80B3FA" transform="translate(492,703)"/>
<path d="M0 0 C0.66 0 1.32 0 2 0 C1.38955672 7.63054095 -0.79621821 14.70189474 -3 22 C-4.35502194 19.78109676 -5.05705661 18.51819411 -4.76806641 15.89355469 C-4.54812012 15.16040039 -4.32817383 14.42724609 -4.1015625 13.671875 C-3.86953125 12.87265625 -3.6375 12.0734375 -3.3984375 11.25 C-3.14320313 10.425 -2.88796875 9.6 -2.625 8.75 C-2.3775 7.90953125 -2.13 7.0690625 -1.875 6.203125 C-1.2629433 4.13154846 -0.63316499 2.06522271 0 0 Z " fill="#C89EF9" transform="translate(507,346)"/>
<path d="M0 0 C-2.54141489 2.54141489 -4.45615838 2.75651667 -7.9375 3.5625 C-11.01712092 4.28469543 -13.9983047 4.9994349 -17 6 C-17.99 5.01 -18.98 4.02 -20 3 C-17.23132003 2.30259196 -14.46063138 1.61677147 -11.6875 0.9375 C-10.90181641 0.73833984 -10.11613281 0.53917969 -9.30664062 0.33398438 C-8.54931641 0.15029297 -7.79199219 -0.03339844 -7.01171875 -0.22265625 C-6.31522217 -0.39547119 -5.61872559 -0.56828613 -4.90112305 -0.74633789 C-3 -1 -3 -1 0 0 Z " fill="#83B2FC" transform="translate(747,494)"/>
<path d="M0 0 C0.66 0 1.32 0 2 0 C2.67286212 2.41509441 3.33846012 4.83180356 4 7.25 C4.19078125 7.93191406 4.3815625 8.61382812 4.578125 9.31640625 C5.49957044 12.70600912 6 15.45778976 6 19 C5.34 19 4.68 19 4 19 C3.32713788 16.58490559 2.66153988 14.16819644 2 11.75 C1.71382812 10.72712891 1.71382812 10.72712891 1.421875 9.68359375 C0.50042956 6.29399088 0 3.54221024 0 0 Z " fill="#C69FF9" transform="translate(566,292)"/>
<path d="M0 0 C0 0.33 0 0.66 0 1 C-1.01707031 0.98646484 -1.01707031 0.98646484 -2.0546875 0.97265625 C-10.16640875 1.23106288 -14.82361306 3.86864165 -21 9 C-21 8.01 -21 7.02 -21 6 C-14.63019931 -0.36980069 -8.71763615 -1.52940985 0 0 Z " fill="#B49FF6" transform="translate(732,262)"/>
<path d="M0 0 C0.66 0 1.32 0 2 0 C1.4361068 3.88536171 0.33310556 6.45224086 -1.875 9.6875 C-2.38804687 10.45449219 -2.90109375 11.22148437 -3.4296875 12.01171875 C-5 14 -5 14 -8 16 C-8 10.8453019 -6.52954031 10.52954031 -3 7 C-1.77747901 4.70777315 -0.91030922 2.4434616 0 0 Z " fill="#7DB4F8" transform="translate(785,500)"/>
<path d="M0 0 C0.66 0.33 1.32 0.66 2 1 C-1.12177122 11.16236162 -1.12177122 11.16236162 -4 15 C-4.99 15.33 -5.98 15.66 -7 16 C-5.56835889 12.34061828 -4.01065704 8.76011932 -2.375 5.1875 C-1.92898438 4.21167969 -1.48296875 3.23585938 -1.0234375 2.23046875 C-0.51683594 1.12638672 -0.51683594 1.12638672 0 0 Z " fill="#C9A0FA" transform="translate(489,412)"/>
<path d="M0 0 C1.9507829 2.92617435 2.71513462 5.02044581 3.625 8.375 C3.88539063 9.31085938 4.14578125 10.24671875 4.4140625 11.2109375 C4.97925133 13.90123635 5.10954217 16.26144571 5 19 C2.08885792 15.67998965 1.19682422 12.65503193 0.25 8.375 C-0.01296875 7.22773438 -0.2759375 6.08046875 -0.546875 4.8984375 C-1 2 -1 2 0 0 Z " fill="#BCA0F9" transform="translate(576,326)"/>
<path d="M0 0 C0.66 0.33 1.32 0.66 2 1 C1.68383092 7.16529701 -1.49215061 11.17268433 -5 16 C-5.33 15.34 -5.66 14.68 -6 14 C-5.0390625 11.50390625 -5.0390625 11.50390625 -3.625 8.5625 C-2.26442584 5.70833464 -1.00046373 3.00139119 0 0 Z " fill="#77B2F7" transform="translate(558,721)"/>
<path d="M0 0 C0 0.33 0 0.66 0 1 C-2.10320063 1.50404808 -4.20759791 2.00310508 -6.3125 2.5 C-8.07013672 2.91765625 -8.07013672 2.91765625 -9.86328125 3.34375 C-13 4 -13 4 -16 4 C-16 3.34 -16 2.68 -16 2 C-5.62642369 -1.62870159 -5.62642369 -1.62870159 0 0 Z " fill="#D19FFA" transform="translate(326,488)"/>
<path d="M0 0 C3.375 -0.125 3.375 -0.125 7 0 C7.66 0.66 8.32 1.32 9 2 C6.91798472 2.50546036 4.83432933 3.00416835 2.75 3.5 C1.58984375 3.7784375 0.4296875 4.056875 -0.765625 4.34375 C-4 5 -4 5 -8 5 C-8 4.34 -8 3.68 -8 3 C-2.25 1.875 -2.25 1.875 0 3 C0 2.01 0 1.02 0 0 Z " fill="#CB9EFB" transform="translate(381,472)"/>
<path d="M0 0 C0.66 0.33 1.32 0.66 2 1 C1.35812082 6.13503344 0.31727753 10.9943454 -1 16 C-2.79570284 13.33874255 -3.03345719 12.21888938 -2.5390625 8.984375 C-2.23742187 7.91703125 -1.93578125 6.8496875 -1.625 5.75 C-1.32851563 4.67234375 -1.03203125 3.5946875 -0.7265625 2.484375 C-0.48679687 1.66453125 -0.24703125 0.8446875 0 0 Z " fill="#7CB4F8" transform="translate(562,706)"/>
<path d="M0 0 C0.99 0.33 1.98 0.66 3 1 C3.984375 3.58203125 3.984375 3.58203125 4.75 6.8125 C5.14445313 8.39998047 5.14445313 8.39998047 5.546875 10.01953125 C5.97222984 12.81733936 5.94056385 14.37531844 5 17 C3.02580067 14.038701 2.54831255 12.47586427 1.9375 9.0625 C1.38037931 6.00984695 0.78714944 3.00231335 0 0 Z " fill="#83B3FB" transform="translate(518,680)"/>
<path d="M0 0 C0.66 0 1.32 0 2 0 C1.40984815 5.50808397 0.43336231 10.64878069 -1 16 C-1.33 16 -1.66 16 -2 16 C-2.20413361 10.26157749 -2.27141454 5.39460953 0 0 Z " fill="#85B0F9" transform="translate(578,645)"/>
<path d="M0 0 C2 1 2 1 2.88671875 3.36328125 C3.15097656 4.33652344 3.41523437 5.30976563 3.6875 6.3125 C3.95949219 7.27800781 4.23148438 8.24351562 4.51171875 9.23828125 C4.99152353 11.95205711 4.90721887 13.43665005 4 16 C1.11388804 11.0523795 0 5.66834163 0 0 Z " fill="#C79FFA" transform="translate(542,323)"/>
<path d="M0 0 C1.98 0.99 1.98 0.99 4 2 C4.828125 4.8203125 4.828125 4.8203125 5.25 8.125 C5.39953125 9.22070312 5.5490625 10.31640625 5.703125 11.4453125 C5.80109375 12.28835938 5.8990625 13.13140625 6 14 C5.01 14.495 5.01 14.495 4 15 C2.68 10.05 1.36 5.1 0 0 Z " fill="#C0A0FB" transform="translate(549,354)"/>
<path d="M0 0 C0.66 0 1.32 0 2 0 C1.09068323 8.94161491 1.09068323 8.94161491 -1 13 C-1.99 13.495 -1.99 13.495 -3 14 C-2.69147815 12.041036 -2.3780582 10.08284287 -2.0625 8.125 C-1.88847656 7.03445313 -1.71445312 5.94390625 -1.53515625 4.8203125 C-1 2 -1 2 0 0 Z " fill="#CA9DFA" transform="translate(513,323)"/>
<path d="M0 0 C2.77862859 3.47328574 4.98463473 7.0412468 7 11 C6.67 11.99 6.34 12.98 6 14 C5.01364163 12.58833114 4.03618745 11.17043816 3.0625 9.75 C2.51722656 8.96109375 1.97195313 8.1721875 1.41015625 7.359375 C0.09832878 5.16451686 -0.64869517 3.52047278 -1 1 C-0.67 0.67 -0.34 0.34 0 0 Z " fill="#7BB4F9" transform="translate(499,724)"/>
<path d="M0 0 C0.66 0.66 1.32 1.32 2 2 C1.01 5.63 0.02 9.26 -1 13 C-1.99 13 -2.98 13 -4 13 C-2.68 8.71 -1.36 4.42 0 0 Z " fill="#92ADFB" transform="translate(560,592)"/>
<path d="M0 0 C1.69433918 3.0469629 2.49467112 5.82821466 3.125 9.25 C3.29257812 10.14203125 3.46015625 11.0340625 3.6328125 11.953125 C3.75398437 12.62859375 3.87515625 13.3040625 4 14 C3.01 13.67 2.02 13.34 1 13 C0.63631108 11.39796533 0.28438048 9.79325797 -0.0625 8.1875 C-0.25972656 7.29417969 -0.45695312 6.40085937 -0.66015625 5.48046875 C-1 3 -1 3 0 0 Z " fill="#8BAFFA" transform="translate(512,651)"/>
<path d="M0 0 C3.96064107 1.74268207 7.74436549 4.14674729 11 7 C11 7.66 11 8.32 11 9 C6.39860359 7.51131293 3.49772906 5.25370145 0 2 C0 1.34 0 0.68 0 0 Z " fill="#CE9FF6" transform="translate(277,512)"/>
<path d="M0 0 C0.66 0 1.32 0 2 0 C1.52060632 4.71403788 1.03165952 8.66579301 -1 13 C-1.66 13 -2.32 13 -3 13 C-2.01 8.71 -1.02 4.42 0 0 Z " fill="#7FAFFA" transform="translate(574,661)"/>
<path d="M0 0 C0.99 0.33 1.98 0.66 3 1 C3.66 4.63 4.32 8.26 5 12 C4.01 11.67 3.02 11.34 2 11 C1.34 7.37 0.68 3.74 0 0 Z " fill="#9EABFC" transform="translate(494,589)"/>
<path d="M0 0 C1.37562854 1.28965176 2.70766393 2.62689293 4 4 C4 4.66 4 5.32 4 6 C5.98 6.66 7.96 7.32 10 8 C10 8.66 10 9.32 10 10 C6.43949035 9.69481346 4.99964963 8.99971192 2.1875 6.6875 C0 4 0 4 0 0 Z " fill="#B9A2FC" transform="translate(660,333)"/>
<path d="M0 0 C2 1 2 1 3.1875 4.25 C3.95061988 7.77209175 4.0252106 9.61680501 3 13 C1.32889958 10.03821227 0.67317248 7.62928808 0.375 4.25 C0.30023437 3.45078125 0.22546875 2.6515625 0.1484375 1.828125 C0.09945312 1.22484375 0.05046875 0.6215625 0 0 Z " fill="#B5A2FB" transform="translate(587,370)"/>
<path d="M0 0 C2 1 2 1 2 1 Z M-1 2 C-2 5 -2 5 -4.375 6.75 C-7 8 -7 8 -10 7 C-8.87926138 6.16094435 -7.75325453 5.32892169 -6.625 4.5 C-5.99851562 4.0359375 -5.37203125 3.571875 -4.7265625 3.09375 C-3 2 -3 2 -1 2 Z " fill="#9AACFC" transform="translate(598,531)"/>
<path d="M0 0 C8.57142857 0.85714286 8.57142857 0.85714286 12 3 C7.48281619 4.36884358 4.41225737 3.47075246 0 2 C0 1.34 0 0.68 0 0 Z " fill="#C89EFA" transform="translate(353,503)"/>
<path d="M0 0 C1.6498275 0.42218816 3.29483665 0.86324425 4.9375 1.3125 C6.31228516 1.67794922 6.31228516 1.67794922 7.71484375 2.05078125 C8.46894531 2.36402344 9.22304688 2.67726563 10 3 C10.33 3.99 10.66 4.98 11 6 C7 4.66666667 3 3.33333333 -1 2 C-0.67 1.34 -0.34 0.68 0 0 Z " fill="#B8A4FB" transform="translate(443,524)"/>
<path d="M0 0 C1.86323318 0.25288812 3.71708432 0.57690153 5.5625 0.9375 C6.57441406 1.13214844 7.58632813 1.32679688 8.62890625 1.52734375 C9.80259766 1.76130859 9.80259766 1.76130859 11 2 C9 4 9 4 7.125 4.046875 C6.42375 3.94890625 5.7225 3.8509375 5 3.75 C3.948125 3.61851562 3.948125 3.61851562 2.875 3.484375 C1 3 1 3 -1 1 C-0.67 0.67 -0.34 0.34 0 0 Z " fill="#C7A0FB" transform="translate(367,506)"/>
<path d="M0 0 C3.63 0.66 7.26 1.32 11 2 C11 2.66 11 3.32 11 4 C9.54119891 3.85892253 8.08296449 3.71197585 6.625 3.5625 C5.40683594 3.44068359 5.40683594 3.44068359 4.1640625 3.31640625 C2 3 2 3 0 2 C0 1.34 0 0.68 0 0 Z " fill="#C4A0FB" transform="translate(344,534)"/>
<path d="M0 0 C3.63 0.66 7.26 1.32 11 2 C10.67 2.66 10.34 3.32 10 4 C6.7 3.34 3.4 2.68 0 2 C0 1.34 0 0.68 0 0 Z " fill="#BCA2FB" transform="translate(424,519)"/>
<path d="M0 0 C3.63 0.66 7.26 1.32 11 2 C10.67 2.66 10.34 3.32 10 4 C8.72125 3.896875 7.4425 3.79375 6.125 3.6875 C5.04605469 3.60048828 5.04605469 3.60048828 3.9453125 3.51171875 C2 3 2 3 0 0 Z " fill="#D09FFB" transform="translate(314,494)"/>
<path d="M0 0 C0 0.33 0 0.66 0 1 C-3.63 1.66 -7.26 2.32 -11 3 C-10.67 2.01 -10.34 1.02 -10 0 C-6.30458414 -0.95024979 -3.69541586 -0.95024979 0 0 Z " fill="#8FAEFC" transform="translate(643,552)"/>
<path d="M0 0 C3.63 0.66 7.26 1.32 11 2 C11 2.66 11 3.32 11 4 C3.375 3.375 3.375 3.375 0 0 Z " fill="#C6A3FC" transform="translate(380,509)"/>
<path d="M0 0 C-3.44450737 2.29633824 -5.93812283 2.54016485 -10 3 C-10.33 2.34 -10.66 1.68 -11 1 C-3.375 -1.125 -3.375 -1.125 0 0 Z " fill="#CE9FFB" transform="translate(363,479)"/>
<path d="M0 0 C3.51716303 3.51716303 3.54676163 5.19567333 4 10 C3.34 10 2.68 10 2 10 C1.34 6.7 0.68 3.4 0 0 Z " fill="#9BACFC" transform="translate(471,624)"/>
<path d="M0 0 C2.31 0.66 4.62 1.32 7 2 C7 2.66 7 3.32 7 4 C7.66 4.33 8.32 4.66 9 5 C4.78087253 4.5205537 2.20336822 3.83374881 -1 1 C-0.67 0.67 -0.34 0.34 0 0 Z " fill="#CB9EF8" transform="translate(289,520)"/>
<path d="M0 0 C0.99 0.33 1.98 0.66 3 1 C3.33 3.64 3.66 6.28 4 9 C3.34 9 2.68 9 2 9 C1.34 6.03 0.68 3.06 0 0 Z " fill="#C29FFB" transform="translate(547,343)"/>
<path d="M0 0 C2.12508244 3.18762365 2.5020163 5.26512223 3 9 C2.01 9.495 2.01 9.495 1 10 C0.63883954 8.5225254 0.28624952 7.04295325 -0.0625 5.5625 C-0.25972656 4.73878906 -0.45695312 3.91507813 -0.66015625 3.06640625 C-0.82837891 2.04353516 -0.82837891 2.04353516 -1 1 C-0.67 0.67 -0.34 0.34 0 0 Z " fill="#8FADFB" transform="translate(480,653)"/>
<path d="M0 0 C-2.64 1.65 -5.28 3.3 -8 5 C-8 4.01 -8 3.02 -8 2 C-4.90310319 -1.09689681 -4.48560889 -1.12140222 0 0 Z " fill="#C2A3FB" transform="translate(335,591)"/>
<path d="M0 0 C0.99 0.33 1.98 0.66 3 1 C-0.465 3.97 -0.465 3.97 -4 7 C-3.04065919 3.16263678 -2.76390737 2.40339772 0 0 Z " fill="#C0A3FA" transform="translate(317,603)"/>
<path d="M0 0 C3.02419525 0.58803797 6.01758453 1.22678118 9 2 C9 2.66 9 3.32 9 4 C3.46153846 3.38461538 3.46153846 3.38461538 1.125 1.4375 C0.75375 0.963125 0.3825 0.48875 0 0 Z " fill="#76B3F9" transform="translate(511,742)"/>
<path d="M0 0 C2 2 2 2 2.1953125 3.9453125 C2.13020833 5.96354167 2.06510417 7.98177083 2 10 C-0.13262124 6.80106814 -0.59021548 4.77001757 -1 1 C-0.67 0.67 -0.34 0.34 0 0 Z " fill="#89B1FB" transform="translate(487,680)"/>
<path d="M0 0 C0.66 0 1.32 0 2 0 C2.66 1.65 3.32 3.3 4 5 C3.01 5.99 2.02 6.98 1 8 C0.67 5.36 0.34 2.72 0 0 Z " fill="#8BAEFA" transform="translate(484,672)"/>
<path d="M0 0 C1.76462683 3.08809695 2 4.23312136 2 8 C1.34 8 0.68 8 0 8 C-0.38063221 5.6739143 -0.71269945 3.33944736 -1 1 C-0.67 0.67 -0.34 0.34 0 0 Z " fill="#99ABFB" transform="translate(499,602)"/>
<path d="M0 0 C2.64 0.33 5.28 0.66 8 1 C8 1.66 8 2.32 8 3 C5.36 2.67 2.72 2.34 0 2 C0 1.34 0 0.68 0 0 Z " fill="#C79FF9" transform="translate(316,528)"/>
<path d="M0 0 C2.3431213 0.25561323 4.67843403 0.59270772 7 1 C7.33 1.66 7.66 2.32 8 3 C5.03 2.67 2.06 2.34 -1 2 C-0.67 1.34 -0.34 0.68 0 0 Z " fill="#CA9FFA" transform="translate(300,524)"/>
<path d="M0 0 C-3.22791555 2.1519437 -4.28400809 2.20086443 -8 2 C-8.33 1.34 -8.66 0.68 -9 0 C-5.62182575 -0.84454356 -3.32534757 -1.10844919 0 0 Z " fill="#88B0FC" transform="translate(715,502)"/>
<path d="" fill="#A1ABF9" transform="translate(0,0)"/>
<path d="M0 0 C2 1 2 1 2 1 Z " fill="#8DB0F6" transform="translate(653,551)"/>
<path d="M0 0 C2 1 2 1 2 1 Z " fill="#C19FF7" transform="translate(352,539)"/>
<path d="M0 0 C2 1 2 1 2 1 Z " fill="#85B2F4" transform="translate(728,533)"/>
<path d="M0 0 C2 1 2 1 2 1 Z " fill="#C59FF3" transform="translate(312,530)"/>
<path d="M0 0 C2 1 2 1 2 1 Z " fill="#92B1FB" transform="translate(657,512)"/>
<path d="M0 0 C2 1 2 1 2 1 Z " fill="#C9A1F9" transform="translate(417,468)"/>
<path d="" fill="#B6A8FC" transform="translate(0,0)"/>
<path d="" fill="#C4A3FB" transform="translate(0,0)"/>
<path d="" fill="#6E7070" transform="translate(0,0)"/>
<path d="" fill="#7FB1EF" transform="translate(0,0)"/>
<path d="" fill="#82B5FB" transform="translate(0,0)"/>
<path d="" fill="#84B2F4" transform="translate(0,0)"/>
<path d="" fill="#8EB2F7" transform="translate(0,0)"/>
<path d="" fill="#83B1F4" transform="translate(0,0)"/>
<path d="" fill="#87B2FC" transform="translate(0,0)"/>
<path d="" fill="#86B3FA" transform="translate(0,0)"/>
<path d="" fill="#8FAFF7" transform="translate(0,0)"/>
<path d="" fill="#8EB0F7" transform="translate(0,0)"/>
<path d="" fill="#8CB0FB" transform="translate(0,0)"/>
<path d="" fill="#B0A1F2" transform="translate(0,0)"/>
<path d="" fill="#B2A2F3" transform="translate(0,0)"/>
<path d="" fill="#B19FEE" transform="translate(0,0)"/>
<path d="" fill="#8AB1F9" transform="translate(0,0)"/>
<path d="" fill="#B29DEF" transform="translate(0,0)"/>
<path d="" fill="#97AEFA" transform="translate(0,0)"/>
<path d="" fill="#8DB1FC" transform="translate(0,0)"/>
<path d="" fill="#B2A3F8" transform="translate(0,0)"/>
<path d="" fill="#8DB1FA" transform="translate(0,0)"/>
<path d="" fill="#9EACFA" transform="translate(0,0)"/>
<path d="" fill="#9DACFB" transform="translate(0,0)"/>
<path d="" fill="#93AFFC" transform="translate(0,0)"/>
<path d="" fill="#93AEFD" transform="translate(0,0)"/>
<path d="" fill="#BFA3F7" transform="translate(0,0)"/>
<path d="" fill="#94ADF8" transform="translate(0,0)"/>
<path d="" fill="#94AEF8" transform="translate(0,0)"/>
<path d="" fill="#8AB1F8" transform="translate(0,0)"/>
<path d="" fill="#C4A0F6" transform="translate(0,0)"/>
<path d="" fill="#82B0F4" transform="translate(0,0)"/>
<path d="" fill="#84B1F1" transform="translate(0,0)"/>
<path d="" fill="#81AFF0" transform="translate(0,0)"/>
<path d="" fill="#BAA5FB" transform="translate(0,0)"/>
<path d="" fill="#98B1FD" transform="translate(0,0)"/>
<path d="" fill="#C0A5FA" transform="translate(0,0)"/>
<path d="" fill="#95B2FB" transform="translate(0,0)"/>
<path d="" fill="#C8A3F7" transform="translate(0,0)"/>
<path d="" fill="#88B4F9" transform="translate(0,0)"/>
<path d="" fill="#C49BE7" transform="translate(0,0)"/>
<path d="" fill="#CFA1F6" transform="translate(0,0)"/>
<path d="" fill="#85B4F1" transform="translate(0,0)"/>
<path d="" fill="#8BB4FB" transform="translate(0,0)"/>
<path d="" fill="#D0A1FA" transform="translate(0,0)"/>
<path d="" fill="#CFA0FA" transform="translate(0,0)"/>
<path d="" fill="#8CB3FB" transform="translate(0,0)"/>
<path d="" fill="#92B2FB" transform="translate(0,0)"/>
<path d="" fill="#CEA3F7" transform="translate(0,0)"/>
<path d="" fill="#CBA1FA" transform="translate(0,0)"/>
<path d="" fill="#C89BEA" transform="translate(0,0)"/>
<path d="" fill="#CBA2F8" transform="translate(0,0)"/>
<path d="" fill="#C9A0F8" transform="translate(0,0)"/>
<path d="" fill="#CB99EB" transform="translate(0,0)"/>
<path d="" fill="#C9A2F6" transform="translate(0,0)"/>
<path d="" fill="#90B2FA" transform="translate(0,0)"/>
<path d="" fill="#91B2FA" transform="translate(0,0)"/>
<path d="" fill="#9FADFB" transform="translate(0,0)"/>
<path d="" fill="#CA9EF4" transform="translate(0,0)"/>
<path d="" fill="#AAACFD" transform="translate(0,0)"/>
<path d="" fill="#B5A8FA" transform="translate(0,0)"/>
<path d="" fill="#B8A6FC" transform="translate(0,0)"/>
<path d="" fill="#C5A2FA" transform="translate(0,0)"/>
<path d="" fill="#BCA6FB" transform="translate(0,0)"/>
<path d="" fill="#BFA4F9" transform="translate(0,0)"/>
<path d="" fill="#C39FF6" transform="translate(0,0)"/>
<path d="" fill="#BDA3FB" transform="translate(0,0)"/>
<path d="" fill="#C7A2FC" transform="translate(0,0)"/>
<path d="" fill="#C9A0F4" transform="translate(0,0)"/>
<path d="" fill="#C3A0F9" transform="translate(0,0)"/>
<path d="" fill="#B7A2FA" transform="translate(0,0)"/>
<path d="" fill="#C2A6FA" transform="translate(0,0)"/>
<path d="" fill="#C99FF8" transform="translate(0,0)"/>
<path d="" fill="#C6A3FA" transform="translate(0,0)"/>
<path d="" fill="#9AA7EE" transform="translate(0,0)"/>
<path d="" fill="#CA9DEF" transform="translate(0,0)"/>
<path d="" fill="#C99EF1" transform="translate(0,0)"/>
<path d="" fill="#CCA2F8" transform="translate(0,0)"/>
<path d="" fill="#C8A1F7" transform="translate(0,0)"/>
<path d="" fill="#CA9EFA" transform="translate(0,0)"/>
<path d="" fill="#CBA1F8" transform="translate(0,0)"/>
<path d="" fill="#CAA1F6" transform="translate(0,0)"/>
<path d="" fill="#B7A4FA" transform="translate(0,0)"/>
<path d="" fill="#C39FF4" transform="translate(0,0)"/>
<path d="" fill="#CDA2F9" transform="translate(0,0)"/>
<path d="" fill="#CEA0FA" transform="translate(0,0)"/>
<path d="" fill="#C69EF4" transform="translate(0,0)"/>
<path d="" fill="#CEA1F5" transform="translate(0,0)"/>
<path d="" fill="#CD9BEE" transform="translate(0,0)"/>
<path d="" fill="#AAA0EC" transform="translate(0,0)"/>
</svg>
